{
  "asset": {
    "version": "2.0",
    "generator": "slotted tools/gen-demo-model.py",
    "copyright": "slotted contributors, MIT OR Apache-2.0"
  },
  "scene": 0,
  "scenes": [
    {
      "name": "pickaxe",
      "nodes": [
        0
      ]
    }
  ],
  "nodes": [
    {
      "name": "pickaxe",
      "mesh": 0
    }
  ],
  "meshes": [
    {
      "name": "pickaxe",
      "primitives": [
        {
          "attributes": {
            "POSITION": 0,
            "NORMAL": 1
          },
          "indices": 2,
          "material": 0
        },
        {
          "attributes": {
            "POSITION": 3,
            "NORMAL": 4
          },
          "indices": 5,
          "material": 1
        }
      ]
    }
  ],
  "materials": [
    {
      "name": "haft",
      "pbrMetallicRoughness": {
        "baseColorFactor": [
          0.42,
          0.3,
          0.2,
          1.0
        ],
        "metallicFactor": 0.0,
        "roughnessFactor": 0.85
      }
    },
    {
      "name": "head",
      "pbrMetallicRoughness": {
        "baseColorFactor": [
          0.72,
          0.76,
          0.8,
          1.0
        ],
        "metallicFactor": 0.9,
        "roughnessFactor": 0.35
      }
    }
  ],
  "accessors": [
    {
      "name": "haft_position",
      "bufferView": 0,
      "componentType": 5126,
      "count": 48,
      "type": "VEC3",
      "min": [
        -0.318665,
        -0.39019,
        -0.075
      ],
      "max": [
        0.283817,
        0.333799,
        0.075
      ]
    },
    {
      "name": "haft_normal",
      "bufferView": 1,
      "componentType": 5126,
      "count": 48,
      "type": "VEC3"
    },
    {
      "name": "haft_index",
      "bufferView": 2,
      "componentType": 5123,
      "count": 72,
      "type": "SCALAR"
    },
    {
      "name": "head_position",
      "bufferView": 3,
      "componentType": 5126,
      "count": 24,
      "type": "VEC3",
      "min": [
        -0.036313,
        0.071405,
        -0.075
      ],
      "max": [
        0.528842,
        0.559004,
        0.075
      ]
    },
    {
      "name": "head_normal",
      "bufferView": 4,
      "componentType": 5126,
      "count": 24,
      "type": "VEC3"
    },
    {
      "name": "head_index",
      "bufferView": 5,
      "componentType": 5123,
      "count": 36,
      "type": "SCALAR"
    }
  ],
  "bufferViews": [
    {
      "buffer": 0,
      "byteOffset": 0,
      "byteLength": 576,
      "target": 34962
    },
    {
      "buffer": 0,
      "byteOffset": 576,
      "byteLength": 576,
      "target": 34962
    },
    {
      "buffer": 0,
      "byteOffset": 1152,
      "byteLength": 144,
      "target": 34963
    },
    {
      "buffer": 0,
      "byteOffset": 1296,
      "byteLength": 288,
      "target": 34962
    },
    {
      "buffer": 0,
      "byteOffset": 1584,
      "byteLength": 288,
      "target": 34962
    },
    {
      "buffer": 0,
      "byteOffset": 1872,
      "byteLength": 72,
      "target": 34963
    }
  ],
  "buffers": [
    {
      "byteLength": 1944,
      "uri": "data:application/octet-stream;base64,"
    }
  ]
}
